<?xml version="1.0" standalone="no"?>
<!DOCTYPE svg PUBLIC "-//W3C//DTD SVG 20010904//EN"
 "http://www.w3.org/TR/2001/REC-SVG-20010904/DTD/svg10.dtd">
<svg version="1.0" xmlns="http://www.w3.org/2000/svg"
 width="3951.000000pt" height="3951.000000pt" viewBox="0 0 3951.000000 3951.000000"
 preserveAspectRatio="xMidYMid meet">
<metadata>
Created by potrace 1.14, written by Peter Selinger 2001-2017
</metadata>
<g transform="translate(0.000000,3951.000000) scale(0.100000,-0.100000)"
fill="#000000" stroke="none">
<path d="M21357 25214 c-1 -1 -36 -4 -77 -8 -69 -5 -165 -19 -215 -31 -168
-39 -340 -99 -475 -165 -100 -49 -97 -47 -220 -126 -344 -220 -625 -571 -812
-1014 -34 -80 -101 -269 -114 -320 -50 -200 -67 -272 -83 -364 -24 -130 -26
-145 -45 -336 -24 -226 -24 -597 -1 -859 8 -96 33 -283 40 -311 2 -8 7 -31 10
-50 24 -139 93 -392 150 -547 84 -225 253 -537 393 -723 142 -189 352 -403
543 -552 44 -35 97 -77 116 -94 l35 -30 -74 -150 c-170 -340 -272 -529 -387
-724 -35 -58 -70 -118 -79 -133 -45 -77 -259 -397 -342 -512 -180 -248 -315
-410 -480 -576 -175 -177 -317 -287 -475 -367 -205 -105 -419 -109 -614 -11
-160 80 -271 232 -374 509 -33 90 -81 252 -91 313 -3 15 -7 35 -10 45 -15 48
-58 341 -71 482 -4 36 -8 76 -10 90 -2 14 -7 72 -11 130 -4 58 -8 119 -9 135
-1 17 -6 86 -9 155 -4 69 -9 151 -11 183 -27 381 -20 1924 10 2342 8 108 14
192 20 290 4 50 8 106 10 125 2 19 7 73 10 120 3 47 8 101 10 120 2 19 7 64
10 100 3 36 8 88 11 115 3 28 7 68 9 90 2 22 7 63 10 90 2 28 7 75 10 105 3
30 8 72 10 93 3 20 7 56 10 80 3 23 10 76 15 117 5 41 12 98 15 125 4 28 11
79 17 115 5 36 12 81 14 100 5 41 32 223 38 260 5 24 12 69 22 140 3 19 12 76
19 126 27 172 38 422 23 539 -19 149 -101 311 -203 403 -100 89 -264 164 -390
179 -78 9 -347 9 -451 0 -161 -14 -326 -74 -474 -172 -138 -92 -256 -255 -343
-475 -22 -57 -78 -257 -91 -330 -2 -14 -14 -72 -25 -130 -22 -116 -110 -588
-118 -635 -6 -35 -105 -523 -129 -635 -9 -41 -18 -86 -20 -100 -3 -13 -14 -63
-25 -110 -11 -47 -22 -94 -25 -105 -2 -11 -7 -33 -11 -50 -4 -16 -7 -32 -8
-35 -3 -14 -19 -86 -20 -90 -1 -3 -7 -32 -14 -65 -7 -33 -17 -73 -22 -90 -5
-16 -32 -122 -59 -235 -53 -216 -94 -376 -130 -500 -11 -41 -30 -106 -40 -145
-11 -38 -35 -124 -55 -190 -20 -66 -37 -124 -39 -130 -1 -5 -11 -37 -20 -70
-57 -195 -188 -586 -291 -870 -75 -206 -225 -592 -260 -670 -8 -16 -32 -75
-55 -130 -23 -55 -53 -124 -66 -152 -13 -29 -36 -79 -50 -110 -107 -237 -272
-554 -390 -749 -318 -528 -662 -885 -875 -910 -219 -26 -419 235 -562 731 -64
222 -136 598 -161 840 -9 88 -16 149 -22 195 -6 50 -8 72 -18 215 -13 176 -15
317 -15 950 0 690 5 937 24 1150 2 22 6 81 10 130 6 95 10 147 19 260 4 39 8
97 11 130 4 63 12 150 20 225 3 25 8 77 11 115 4 39 8 84 10 100 1 17 5 62 9
100 3 39 7 86 10 105 8 61 14 113 20 177 3 34 7 70 9 80 2 10 7 52 11 93 4 41
9 82 10 90 2 8 6 40 9 70 9 77 15 119 20 160 3 19 8 53 10 75 3 22 10 77 16
122 6 46 13 95 15 110 1 16 6 46 9 68 6 41 30 211 41 297 22 164 32 329 30
508 -2 178 -5 215 -24 278 -52 177 -142 304 -271 387 -38 24 -171 84 -198 90
-10 2 -53 13 -97 24 -72 19 -100 21 -285 17 -113 -3 -218 -7 -235 -10 -139
-27 -192 -44 -280 -86 -112 -55 -215 -134 -275 -213 -22 -28 -44 -57 -49 -63
-18 -22 -91 -173 -117 -241 -30 -80 -80 -271 -90 -340 -3 -26 -7 -50 -9 -53
-2 -3 -6 -29 -10 -59 -4 -30 -9 -63 -11 -75 -7 -34 -19 -109 -29 -186 -4 -31
-16 -110 -20 -130 -2 -8 -6 -44 -10 -80 -3 -36 -8 -72 -10 -80 -2 -8 -7 -39
-10 -69 -4 -30 -8 -62 -10 -72 -2 -10 -6 -46 -9 -81 -4 -35 -8 -72 -10 -83 -2
-11 -7 -54 -11 -95 -4 -41 -9 -82 -10 -90 -1 -8 -6 -44 -9 -80 -9 -86 -11 -98
-31 -280 -6 -52 -14 -146 -20 -225 -3 -38 -8 -92 -11 -120 -10 -106 -13 -143
-19 -230 -4 -49 -8 -106 -10 -125 -2 -19 -6 -84 -10 -145 -4 -60 -8 -132 -10
-160 -23 -370 -38 -852 -38 -1225 0 -206 10 -685 17 -805 2 -27 6 -106 10
-175 4 -69 9 -145 11 -170 3 -25 7 -79 10 -120 6 -83 14 -166 20 -220 2 -19 7
-60 10 -90 3 -30 8 -77 12 -105 4 -27 6 -53 5 -57 -1 -4 3 -31 8 -60 5 -29 11
-71 14 -93 9 -77 27 -200 36 -250 5 -27 12 -65 15 -82 9 -55 14 -86 25 -143 6
-30 13 -66 16 -80 59 -327 204 -829 329 -1140 190 -474 488 -907 765 -1114 30
-22 57 -44 60 -47 12 -16 198 -123 267 -155 263 -119 520 -158 884 -131 191
14 434 78 642 170 31 15 61 27 65 29 29 10 205 112 287 165 259 170 509 394
734 658 51 61 103 121 115 135 12 14 64 84 117 155 336 457 585 911 932 1705
22 52 44 99 48 103 4 5 10 -15 14 -45 4 -29 9 -60 10 -68 1 -8 6 -40 10 -70 3
-30 8 -66 10 -80 3 -14 9 -56 15 -95 16 -109 20 -132 41 -250 28 -153 58 -304
69 -340 5 -16 11 -41 14 -55 12 -70 91 -354 136 -490 197 -590 442 -1000 757
-1265 102 -86 108 -91 212 -152 168 -100 330 -157 556 -198 135 -24 476 -24
594 -1 12 3 42 7 66 10 124 15 418 98 549 155 23 10 61 27 86 37 25 10 47 21
50 24 3 3 57 31 120 63 253 126 576 354 840 592 135 122 373 359 491 489 30
33 61 67 69 76 36 38 242 283 311 370 244 307 580 795 747 1085 162 281 249
442 397 733 l67 133 37 -5 c20 -3 61 -8 91 -11 30 -3 66 -8 80 -10 14 -2 44
-7 68 -10 58 -7 122 -15 152 -20 14 -2 59 -6 100 -10 41 -4 91 -8 110 -10 187
-20 875 -28 1000 -12 89 12 222 58 299 104 186 110 363 379 398 602 9 61 9
264 0 324 -22 139 -131 279 -277 356 -100 52 -196 66 -515 76 -204 7 -428 18
-594 30 -277 20 -350 32 -336 55 3 5 8 18 10 27 8 38 35 135 78 278 43 144 75
253 83 285 2 8 13 51 25 95 11 44 22 87 24 95 2 8 13 53 25 100 12 47 24 96
26 110 3 14 7 33 10 42 3 9 7 27 9 40 3 13 9 43 15 68 11 50 58 304 66 360 3
19 9 60 15 91 5 31 11 74 14 95 2 22 6 58 9 82 10 74 20 163 32 287 2 27 10
140 19 291 6 88 6 398 0 489 -30 472 -141 830 -358 1155 -182 274 -431 472
-735 586 -117 44 -279 82 -382 90 -69 6 -378 12 -383 8z m-62 -1605 c48 -12
100 -56 131 -109 21 -37 54 -115 59 -140 2 -8 8 -34 14 -57 18 -67 25 -190 25
-428 -1 -194 -10 -400 -19 -415 -2 -3 -6 -30 -9 -60 -3 -30 -8 -66 -11 -80 -3
-14 -8 -41 -11 -60 -4 -19 -7 -39 -8 -45 -2 -5 -7 -32 -11 -60 -5 -27 -10 -52
-10 -55 -6 -28 -28 -127 -29 -135 -39 -194 -209 -795 -225 -795 -7 0 -115 137
-159 201 -79 117 -154 284 -196 439 -57 210 -71 350 -71 680 1 256 8 358 35
495 6 33 14 74 16 90 3 17 19 69 35 117 75 229 194 378 329 414 58 16 63 16
115 3z"/>
<path d="M6097 25054 c-1 -1 -65 -4 -142 -8 -77 -4 -153 -8 -170 -10 -16 -2
-61 -7 -100 -11 -38 -3 -81 -8 -95 -10 -14 -3 -72 -11 -130 -20 -58 -8 -127
-20 -155 -25 -498 -98 -778 -192 -1151 -384 -464 -240 -736 -468 -1042 -871
-26 -35 -112 -170 -140 -220 -190 -343 -296 -686 -328 -1060 -9 -100 -8 -438
0 -525 61 -596 259 -1011 690 -1444 141 -142 214 -206 341 -301 220 -163 372
-253 723 -425 111 -55 204 -100 207 -100 2 0 32 -13 67 -29 141 -65 295 -130
683 -289 922 -378 1215 -521 1440 -700 332 -266 433 -515 369 -912 -9 -54 -54
-179 -86 -240 -49 -91 -102 -155 -218 -264 -73 -68 -307 -196 -458 -250 -69
-25 -233 -69 -297 -81 -117 -21 -209 -35 -263 -40 -35 -4 -71 -8 -81 -10 -42
-8 -300 -19 -451 -19 -145 0 -333 8 -425 18 -106 11 -153 17 -175 21 -14 2
-43 7 -65 10 -128 17 -405 84 -459 111 -16 8 -33 14 -38 14 -18 0 -146 65
-208 106 -145 96 -231 196 -278 326 -23 64 -27 90 -28 208 -1 81 5 191 16 275
10 77 21 173 25 214 4 41 9 84 11 95 3 12 5 77 5 146 1 228 -54 365 -206 516
-79 78 -107 98 -196 142 -57 29 -113 54 -125 56 -11 2 -45 11 -75 20 -44 13
-92 16 -264 13 -195 -4 -215 -6 -280 -29 -103 -38 -123 -47 -205 -102 -160
-107 -291 -281 -374 -501 -28 -76 -71 -235 -81 -306 -4 -24 -10 -62 -14 -84
-16 -84 -20 -443 -8 -640 16 -262 96 -564 212 -795 113 -226 300 -468 459
-592 16 -13 52 -41 80 -63 170 -134 447 -294 672 -388 130 -54 447 -157 529
-172 11 -2 49 -11 85 -20 36 -9 74 -19 85 -21 54 -12 287 -53 335 -59 30 -4
64 -9 75 -11 11 -2 45 -6 75 -10 30 -3 66 -7 80 -10 14 -2 59 -6 100 -9 41 -3
93 -7 115 -10 205 -24 762 -24 1035 1 171 15 218 20 335 35 148 19 148 19 225
34 14 3 39 8 55 10 70 12 234 47 280 60 28 7 95 26 150 42 55 15 102 28 105
28 13 3 114 37 200 68 669 243 1188 629 1510 1123 212 326 350 743 378 1147 8
130 8 530 -1 622 -22 234 -122 539 -252 770 -128 230 -386 515 -678 751 -167
135 -547 344 -987 544 -272 123 -269 121 -395 175 -60 26 -123 53 -140 61 -16
7 -115 47 -220 89 -104 43 -201 82 -215 88 -14 6 -27 11 -30 12 -3 1 -23 9
-45 19 -22 10 -62 27 -89 37 -27 11 -68 28 -90 38 -23 11 -108 49 -191 86
-250 111 -526 254 -620 320 -342 242 -509 456 -565 725 -15 70 -19 257 -8 355
10 85 53 226 94 309 99 197 262 352 490 465 91 45 244 104 297 115 12 3 47 11
77 20 69 18 209 45 275 52 27 3 56 7 62 9 30 10 265 20 463 20 197 0 338 -7
415 -20 414 -71 679 -184 843 -360 36 -38 75 -95 103 -151 l45 -89 -2 -105
c-5 -246 -7 -301 -20 -410 -21 -171 -28 -289 -28 -440 1 -113 5 -147 24 -205
82 -249 270 -432 527 -514 112 -35 183 -45 300 -44 366 4 634 181 799 528 67
142 128 348 148 505 3 25 8 54 10 65 14 70 21 221 21 425 0 233 -3 272 -30
445 -83 527 -382 982 -870 1326 -104 73 -124 87 -145 96 -8 3 -26 14 -40 23
-45 31 -263 137 -370 180 -128 51 -349 125 -437 145 -10 2 -65 16 -123 29
-128 31 -333 69 -430 80 -75 9 -144 18 -165 22 -48 9 -738 26 -748 18z"/>
<path d="M34207 25034 c-1 -1 -191 -5 -422 -8 -231 -4 -451 -9 -490 -10 -38
-2 -142 -7 -230 -11 -88 -3 -182 -8 -210 -10 -27 -2 -97 -6 -155 -10 -58 -3
-121 -8 -140 -10 -19 -2 -82 -6 -140 -10 -58 -4 -114 -9 -124 -11 -11 -2 -49
-6 -85 -9 -75 -6 -154 -14 -191 -20 -14 -2 -54 -6 -90 -10 -36 -3 -123 -15
-195 -25 -71 -11 -150 -22 -175 -25 -127 -15 -568 -99 -695 -131 -33 -9 -68
-18 -78 -20 -10 -2 -27 -6 -37 -9 -10 -3 -27 -8 -37 -10 -73 -15 -319 -87
-445 -131 -397 -137 -742 -313 -1003 -509 -241 -181 -456 -418 -577 -635 -14
-25 -34 -61 -45 -80 -64 -116 -175 -423 -188 -525 -1 -11 -7 -47 -14 -80 -41
-223 -49 -615 -15 -835 27 -178 75 -367 118 -465 8 -16 26 -59 42 -95 95 -219
286 -472 431 -571 150 -103 369 -137 576 -90 315 73 605 304 695 554 21 58 26
91 27 167 0 107 -6 127 -104 330 -113 234 -139 323 -148 510 -14 298 93 529
315 677 58 38 204 115 277 144 94 39 379 121 465 135 14 2 45 9 70 14 25 5 88
17 140 25 136 23 140 23 195 30 28 3 59 7 70 9 20 4 73 10 190 21 33 4 76 8
95 10 19 3 76 7 125 10 50 4 100 8 112 10 18 3 189 12 343 19 24 1 25 -2 24
-49 -1 -39 -57 -337 -120 -640 -7 -38 -24 -120 -28 -140 -19 -94 -157 -786
-161 -806 -3 -14 -18 -95 -34 -180 -41 -211 -40 -206 -51 -278 -6 -36 -13 -67
-14 -70 -2 -3 -7 -31 -11 -61 -4 -30 -9 -58 -11 -61 -2 -4 -6 -24 -9 -45 -3
-22 -12 -73 -20 -114 -13 -69 -70 -394 -81 -465 -2 -16 -9 -55 -14 -85 -5 -30
-12 -71 -15 -90 -3 -19 -7 -46 -10 -60 -3 -14 -7 -40 -10 -57 -3 -18 -7 -46
-10 -61 -2 -16 -18 -116 -35 -223 -16 -107 -33 -210 -36 -229 -3 -19 -7 -48
-10 -65 -2 -16 -6 -45 -9 -62 -3 -18 -8 -50 -11 -70 -3 -21 -9 -65 -14 -98 -5
-33 -12 -78 -15 -100 -3 -22 -10 -65 -15 -95 -5 -30 -12 -73 -15 -95 -5 -34
-76 -474 -91 -560 -49 -284 -52 -305 -60 -360 -3 -22 -9 -62 -14 -90 -6 -27
-12 -66 -14 -85 -3 -19 -12 -80 -21 -135 -22 -135 -23 -143 -30 -195 -3 -25
-8 -52 -10 -60 -2 -8 -7 -35 -10 -60 -3 -25 -14 -103 -25 -175 -10 -71 -21
-152 -25 -180 -3 -27 -8 -61 -10 -75 -2 -14 -6 -47 -10 -75 -3 -27 -8 -61 -10
-75 -2 -14 -6 -52 -10 -85 -4 -33 -8 -73 -10 -90 -8 -60 -14 -122 -21 -200 -3
-44 -8 -89 -11 -100 -2 -11 -6 -115 -10 -231 -4 -153 -2 -230 7 -280 43 -231
194 -426 415 -536 64 -32 191 -73 275 -88 68 -13 346 -17 415 -7 387 57 689
279 786 579 25 76 25 76 34 158 4 36 9 76 11 90 2 14 6 52 9 85 3 33 8 80 10
105 3 25 7 74 10 109 3 35 8 82 10 105 3 22 7 61 10 86 14 132 36 339 40 370
3 19 7 58 10 85 3 28 8 61 10 75 2 14 7 50 10 80 8 79 17 149 30 240 2 14 6
48 10 75 3 28 7 61 9 75 3 14 7 48 11 75 3 28 8 64 10 80 14 97 38 274 40 300
2 17 6 44 9 61 3 18 8 52 11 75 7 55 15 116 20 149 5 32 45 294 51 340 3 19 7
46 9 60 4 23 14 87 36 240 5 36 11 72 14 80 2 8 7 35 10 60 3 25 10 72 15 105
5 33 12 78 15 100 4 22 8 47 10 55 2 8 7 38 10 65 4 28 8 57 10 65 3 8 7 33
10 55 3 22 10 63 15 90 5 28 12 64 14 80 3 17 12 73 21 125 9 52 18 106 20
120 7 42 35 204 40 230 2 14 13 77 24 140 11 63 36 205 56 315 19 110 38 214
41 230 3 17 14 80 25 140 11 61 27 148 35 195 8 47 23 130 34 185 20 104 26
137 40 220 5 28 20 111 34 185 31 163 34 180 47 250 11 58 16 87 24 135 8 47
13 75 29 150 8 39 18 87 20 107 3 21 10 57 15 80 6 24 13 59 16 78 17 99 117
594 133 654 l17 68 350 -6 c193 -4 400 -9 460 -11 196 -6 499 -17 550 -20 28
-2 109 -6 180 -9 72 -3 150 -8 175 -10 25 -3 99 -7 165 -11 66 -4 134 -8 150
-10 17 -2 75 -7 130 -10 55 -4 116 -8 135 -10 19 -1 80 -6 135 -9 55 -4 114
-9 130 -11 137 -16 481 -22 616 -11 321 26 569 211 658 490 84 263 67 492 -50
689 -108 181 -332 333 -596 402 -129 34 -378 78 -568 100 -22 3 -56 7 -75 10
-36 5 -84 10 -200 20 -36 4 -76 8 -90 10 -14 2 -65 7 -115 10 -49 4 -106 8
-125 10 -19 2 -80 6 -135 10 -55 3 -123 8 -150 10 -60 5 -265 15 -430 20 -66
2 -358 7 -650 10 -749 9 -876 10 -878 9z"/>
<path d="M25544 24984 c-5 -2 -148 -5 -319 -8 -170 -3 -335 -8 -365 -10 -85
-6 -189 -17 -213 -22 -12 -2 -39 -6 -62 -9 -22 -4 -84 -17 -138 -31 -348 -88
-580 -251 -690 -485 -62 -132 -77 -208 -83 -399 -3 -135 3 -201 26 -255 5 -11
11 -30 15 -42 10 -36 85 -146 128 -187 105 -100 253 -163 427 -181 60 -6 380
-14 748 -19 127 -1 234 -5 236 -7 2 -2 0 -33 -5 -69 -4 -36 -11 -85 -14 -110
-8 -68 -15 -119 -25 -185 -5 -33 -11 -78 -14 -100 -3 -22 -15 -105 -26 -185
-12 -80 -23 -161 -26 -180 -2 -19 -8 -60 -14 -90 -5 -30 -11 -72 -14 -92 -12
-78 -18 -117 -42 -268 -14 -85 -27 -167 -29 -182 -3 -16 -7 -40 -9 -55 -3 -16
-16 -102 -31 -193 -14 -91 -28 -176 -30 -190 -2 -14 -16 -97 -30 -185 -15 -88
-28 -173 -31 -190 -3 -16 -9 -55 -14 -85 -5 -30 -12 -68 -14 -85 -3 -16 -14
-84 -25 -150 -11 -66 -23 -138 -27 -160 -3 -22 -16 -104 -30 -182 -13 -79 -26
-159 -29 -179 -2 -20 -7 -44 -9 -53 -3 -9 -7 -34 -10 -57 -2 -22 -9 -67 -15
-100 -16 -91 -22 -127 -26 -154 -2 -14 -6 -38 -9 -55 -11 -61 -27 -161 -32
-195 -2 -19 -7 -46 -9 -60 -12 -63 -24 -138 -30 -175 -3 -22 -12 -78 -20 -125
-7 -47 -16 -101 -19 -120 -18 -114 -47 -299 -51 -320 -2 -14 -7 -43 -10 -65
-11 -71 -15 -99 -25 -155 -5 -30 -12 -73 -15 -95 -4 -22 -12 -78 -20 -125 -8
-47 -17 -105 -20 -130 -3 -25 -12 -83 -20 -130 -8 -47 -19 -114 -24 -150 -6
-36 -13 -81 -16 -100 -6 -39 -41 -266 -49 -320 -3 -19 -12 -78 -20 -130 -23
-148 -26 -164 -52 -349 -13 -96 -25 -176 -27 -178 -2 -1 -68 -5 -148 -8 -274
-10 -474 -21 -534 -30 -16 -2 -55 -7 -85 -10 -69 -8 -226 -40 -262 -54 -16 -6
-28 -8 -28 -6 0 6 -159 -50 -229 -81 -339 -149 -550 -408 -588 -719 -21 -178
5 -350 72 -471 31 -54 167 -204 186 -204 4 0 14 -6 21 -13 25 -23 113 -66 193
-92 67 -23 101 -27 215 -30 118 -3 238 3 360 19 19 3 60 8 90 11 30 3 71 8 90
10 19 2 58 7 85 10 28 4 61 8 75 10 14 3 50 7 80 10 30 3 65 7 78 10 13 2 53
7 90 11 36 3 73 7 82 9 8 1 53 6 100 10 47 4 93 9 103 11 9 1 54 6 100 10 45
3 98 8 117 9 279 25 861 25 1550 -1 318 -12 809 -11 898 2 277 41 487 151 647
338 63 73 120 185 146 284 25 95 30 336 9 422 -49 209 -214 400 -410 477 -65
26 -186 58 -253 68 -27 3 -56 8 -65 10 -18 3 -174 16 -252 20 -25 2 -172 4
-328 4 -156 1 -281 4 -279 9 3 4 8 32 11 63 4 31 9 67 11 80 3 13 7 42 10 64
12 100 27 206 30 225 5 28 15 95 19 135 3 22 17 121 31 220 14 99 28 198 31
220 2 22 7 51 9 65 9 50 20 127 30 210 3 25 10 74 16 110 6 36 12 83 15 105 3
22 9 63 14 90 5 28 11 68 14 90 5 37 16 116 31 220 3 22 10 65 15 95 5 30 12
75 15 100 3 25 8 52 10 60 2 8 6 38 10 65 6 50 14 102 20 134 1 9 6 41 10 71
4 30 9 64 11 75 2 10 6 37 9 60 4 22 8 51 10 65 2 14 11 70 20 125 9 55 18
111 20 125 20 125 45 282 49 313 3 20 9 54 12 75 3 20 12 73 19 117 8 44 17
96 19 115 2 19 10 67 16 105 7 39 14 84 16 100 3 17 12 71 20 120 8 50 17 104
20 120 2 17 9 55 14 85 5 30 12 73 15 94 3 21 7 48 10 60 2 12 7 37 10 56 2
19 6 44 9 55 2 11 7 42 10 69 4 27 9 52 10 55 2 3 7 33 11 66 3 32 8 62 10 65
1 3 6 27 9 53 4 26 11 71 17 100 5 29 12 68 14 87 3 19 7 46 10 60 3 14 8 41
11 60 19 120 40 251 48 290 3 14 10 54 16 90 5 36 12 76 14 90 3 14 7 41 10
60 3 19 8 46 10 60 3 14 28 162 56 330 28 168 52 315 54 326 2 12 14 83 27
158 l23 136 100 1 c312 2 817 15 891 23 115 12 157 20 224 42 327 104 560 378
615 723 12 74 13 232 2 280 -48 208 -211 379 -449 472 -41 15 -89 31 -107 34
-18 3 -36 7 -39 9 -3 2 -31 7 -61 11 -30 4 -66 10 -80 12 -25 4 -2719 11
-2736 7z"/>
</g>
</svg>
